<svg xmlns="http://www.w3.org/2000/svg" width="56" height="56" fill="none" xmlns:v="https://vecta.io/nano"><g clip-path="url(#A)" stroke="#000" stroke-width="2" stroke-linejoin="round"><path d="M11.667 16.333H14c1.238 0 2.425-.492 3.3-1.367s1.367-2.062 1.367-3.3c0-.619.246-1.212.683-1.65s1.031-.683 1.65-.683h14c.619 0 1.212.246 1.65.683s.683 1.031.683 1.65c0 1.238.492 2.425 1.367 3.3s2.062 1.367 3.3 1.367h2.333c1.238 0 2.425.492 3.3 1.367S49 19.762 49 21v21c0 1.238-.492 2.425-1.367 3.3s-2.062 1.367-3.3 1.367H11.667c-1.238 0-2.425-.492-3.3-1.367S7 43.238 7 42V21c0-1.238.492-2.425 1.367-3.3s2.062-1.367 3.3-1.367" stroke-linecap="round"/><path d="M28 37.333a7 7 0 1 0 0-14 7 7 0 1 0 0 14z"/></g><defs><clipPath id="A"><path fill="#fff" d="M0 0h56v56H0z"/></clipPath></defs></svg>