<svg xmlns="http://www.w3.org/2000/svg" width="56" height="56" fill="none" xmlns:v="https://vecta.io/nano"><g clip-path="url(#A)" stroke="#000" stroke-width="2" stroke-linejoin="round"><path d="M16.333 30.333H14A4.67 4.67 0 0 0 9.333 35v7A4.67 4.67 0 0 0 14 46.667h2.333A4.67 4.67 0 0 0 21 42v-7a4.67 4.67 0 0 0-4.667-4.667zm25.667 0h-2.333A4.67 4.67 0 0 0 35 35v7a4.67 4.67 0 0 0 4.667 4.667H42A4.67 4.67 0 0 0 46.667 42v-7A4.67 4.67 0 0 0 42 30.333z"/><path d="M9.333 35v-7c0-4.951 1.967-9.699 5.467-13.199S23.049 9.333 28 9.333s9.699 1.967 13.199 5.467S46.667 23.049 46.667 28v7" stroke-linecap="round"/></g><defs><clipPath id="A"><path fill="#fff" d="M0 0h56v56H0z"/></clipPath></defs></svg>