<svg xmlns="http://www.w3.org/2000/svg" width="32" height="32" fill="none" xmlns:v="https://vecta.io/nano"><path d="M14.072 8.32L9.561 3.113c-.52-.6-1.473-.597-2.077.008L3.775 6.837c-1.104 1.105-1.42 2.747-.781 4.063 3.815 7.9 10.187 14.28 18.081 18.107 1.315.639 2.955.323 4.059-.783l3.744-3.751c.607-.607.608-1.565.003-2.085l-5.227-4.487c-.547-.469-1.396-.408-1.944.141l-1.819 1.821c-.093.098-.216.162-.349.183s-.27-.002-.388-.066a19.41 19.41 0 0 1-7.147-7.156c-.064-.119-.087-.256-.066-.389s.086-.256.183-.349l1.813-1.815c.549-.552.609-1.405.135-1.953v.001z" stroke="#000" stroke-width="2" stroke-linejoin="round"/></svg>