<svg xmlns="http://www.w3.org/2000/svg" width="32" height="32" fill="none" xmlns:v="https://vecta.io/nano"><g clip-path="url(#A)" stroke="#000" stroke-width="2" stroke-linejoin="round"><path d="M10 19.333C10 17.492 8.433 16 6.5 16S3 17.492 3 19.333v3.333C3 24.508 4.567 26 6.5 26s3.5-1.492 3.5-3.333v-3.333zm19 0C29 17.492 27.657 16 26 16s-3 1.492-3 3.333v3.333C23 24.508 24.343 26 26 26s3-1.492 3-3.333v-3.333z"/><g stroke-linecap="round"><path d="M3 19v-4.636c0-3.279 1.37-6.424 3.808-8.742S12.552 2 16 2s6.754 1.303 9.192 3.621S29 11.085 29 14.364V19m-3 7c0 1.326-1.054 2.598-2.929 3.535S18.652 31 16 31"/></g></g><defs><clipPath id="A"><path fill="#fff" d="M0 0h32v32H0z"/></clipPath></defs></svg>