<svg xmlns="http://www.w3.org/2000/svg" width="40" height="40" fill="none" xmlns:v="https://vecta.io/nano"><g clip-path="url(#A)" stroke="#000" stroke-width="2" stroke-linejoin="round"><path d="M11.667 31.667c1.841 0 3.333-1.492 3.333-3.333S13.508 25 11.667 25s-3.333 1.492-3.333 3.333 1.492 3.333 3.333 3.333zm16.666 0c1.841 0 3.333-1.492 3.333-3.333S30.174 25 28.333 25 25 26.492 25 28.333s1.492 3.333 3.333 3.333z"/><g stroke-linecap="round"><path d="M8.334 28.334H7.001a2 2 0 0 1-2-2v-4.667M3.334 8.334h16.333a2 2 0 0 1 2 2v18m-6.667 0h10m6.667 0h1.333a2 2 0 0 0 2-2v-8m0 0H21.667m13.333 0l-4.417-7.362A2 2 0 0 0 28.868 10h-7.201"/><path d="M8 28H6.667a2 2 0 0 1-2-2v-4.667M3 8h16.333a2 2 0 0 1 2 2v18M15 28h9.667M32 28h.667a2 2 0 0 0 2-2v-8m0 0H21.333m13.333 0l-4.417-7.362a2 2 0 0 0-1.715-.971h-7.201M5 11.818h6.667m-9.849 3.637h6.667M5 19.091h6.667"/></g></g><defs><clipPath id="A"><path fill="#fff" d="M0 0h40v40H0z"/></clipPath></defs></svg>