<svg xmlns="http://www.w3.org/2000/svg" width="24" height="24" fill="none" stroke="#000" stroke-width="1.5" xmlns:v="https://vecta.io/nano"><path d="M20.485 3h-3.992l.5 5s1 1 2.5 1a3.23 3.23 0 0 0 2.139-.806c.063-.058.109-.132.135-.213s.031-.168.015-.252L21.076 3.5a.6.6 0 0 0-.591-.5h0z"/><path d="M16.493 3l.5 5s-1 1-2.5 1-2.5-1-2.5-1V3h4.5z"/><path d="M11.993 3v5s-1 1-2.5 1-2.5-1-2.5-1l.5-5h4.5z"/><path d="M7.493 3H3.502a.6.6 0 0 0-.592.501L2.205 7.73c-.016.084-.011.171.015.252s.073.155.135.213c.328.29 1.061.806 2.138.806 1.5 0 2.5-1 2.5-1l.5-5V3z"/><path d="M3 9v10a2 2 0 0 0 2 2h14a2 2 0 0 0 2-2V9"/><path d="M14.833 21v-6a2 2 0 0 0-2-2h-2a2 2 0 0 0-2 2v6" stroke-miterlimit="16"/></svg>