<svg xmlns="http://www.w3.org/2000/svg" width="40" height="40" fill="none" xmlns:v="https://vecta.io/nano"><path d="M10.4 33V16.75c0-2.586 1.011-5.066 2.812-6.894S17.454 7 20 7s4.988 1.027 6.788 2.856S29.6 14.164 29.6 16.75V33M4 22.543c0-3.336 3.2-4.168 6.4-4.168V33a6.35 6.35 0 0 1-4.525-1.904C4.674 29.877 4 28.224 4 26.5v-3.957zm32 0c0-3.336-3.2-4.168-6.4-4.168V33a6.35 6.35 0 0 0 4.526-1.904C35.326 29.877 36 28.224 36 26.5v-3.957z" stroke="#000" stroke-width="2" stroke-linecap="round" stroke-linejoin="round"/></svg>