<svg width="44" height="44" viewBox="0 0 44 44" fill="none" xmlns="http://www.w3.org/2000/svg">
<path d="M8.00003 18.8889V32.8888C8.00003 33.714 8.32781 34.5053 8.91125 35.0887C9.4947 35.6722 10.286 36 11.1111 36H32.8889C33.714 36 34.5054 35.6722 35.0888 35.0887C35.6722 34.5053 36 33.714 36 32.8888V18.8889" stroke="#1B1A1F" stroke-width="2.2"/>
<path d="M26.4069 36V26.6667C26.4069 25.8416 26.0792 25.0503 25.4957 24.4668C24.9123 23.8834 24.1209 23.5556 23.2958 23.5556H20.1847C19.3596 23.5556 18.5683 23.8834 17.9848 24.4668C17.4014 25.0503 17.0736 25.8416 17.0736 26.6667V36" stroke="#1B1A1F" stroke-width="2.2" stroke-miterlimit="16"/>
<path d="M37.2724 17.8996L34.6373 8.67667C34.5815 8.48167 34.4637 8.31015 34.3018 8.18806C34.1398 8.06597 33.9425 7.99995 33.7397 8H27.4444L28.1833 16.8729C28.1945 17.0156 28.2395 17.1535 28.3147 17.2753C28.39 17.397 28.4931 17.499 28.6157 17.5729C29.2224 17.9353 30.4077 18.6042 31.3333 18.8889C32.9137 19.3758 35.2222 19.2 36.5382 19.0382C36.6661 19.0217 36.7889 18.9774 36.898 18.9085C37.007 18.8396 37.0998 18.7478 37.1697 18.6394C37.2396 18.531 37.285 18.4086 37.3027 18.2808C37.3205 18.153 37.3101 18.0229 37.2724 17.8996Z" stroke="#1B1A1F" stroke-width="2.2"/>
<path d="M25.1112 18.8889C25.9947 18.6167 27.1147 17.996 27.7401 17.6258C27.8858 17.539 28.0041 17.4128 28.0811 17.2617C28.1582 17.1105 28.191 16.9407 28.1756 16.7718L27.4445 8H16.5556L15.8245 16.7718C15.8088 16.941 15.8414 17.1111 15.9185 17.2626C15.9956 17.414 16.114 17.5404 16.2601 17.6273C16.8854 17.996 18.0054 18.6167 18.8889 18.8889C21.2114 19.6044 22.7887 19.6044 25.1112 18.8889V18.8889Z" stroke="#1B1A1F" stroke-width="2.2"/>
<path d="M9.36267 8.67667L6.72756 17.9011C6.69036 18.0243 6.68042 18.1541 6.69842 18.2815C6.71641 18.4089 6.76192 18.5308 6.83178 18.6389C6.90164 18.7469 6.99418 18.8385 7.10297 18.9071C7.21176 18.9758 7.33419 19.02 7.46178 19.0367C8.77622 19.2 11.0862 19.3742 12.6667 18.8889C13.5922 18.6042 14.7791 17.9353 15.3842 17.5744C15.507 17.5004 15.6103 17.3982 15.6856 17.2761C15.7608 17.1541 15.8057 17.0158 15.8167 16.8729L16.5556 8H10.2602C10.0574 7.99995 9.8601 8.06597 9.69816 8.18806C9.53621 8.31015 9.41844 8.48167 9.36267 8.67667V8.67667Z" stroke="#1B1A1F" stroke-width="2.2"/>
</svg>
