<svg xmlns="http://www.w3.org/2000/svg" xmlns:xlink="http://www.w3.org/1999/xlink" width="64" height="64" viewBox="-2.4 -2.4 28.8 28.8" fill="none" stroke="#ffffff" xmlns:v="https://vecta.io/nano"><g fill-rule="evenodd" fill="#fff"><use xlink:href="#B" stroke-linejoin="round" stroke="#ccc" stroke-width=".144"/><use xlink:href="#B"/></g><defs ><path id="B" d="M19.783 3.918c.348-.083.591-.164.791-.249.279-.12.51-.263.876-.504A1 1 0 0 1 23 4c0 1.081-.135 1.967-.447 2.747a5.47 5.47 0 0 1-1.072 1.673c-.186 3.363-1.16 6.004-2.648 8.005-1.543 2.074-3.595 3.402-5.758 4.146-2.157.742-4.436.907-6.478.656-2.029-.249-3.904-.921-5.211-1.937a1 1 0 0 1 .755-1.779c1.286.184 2.524-.109 3.542-.527-.2-.109-.389-.227-.565-.349-.928-.642-1.676-1.514-2.013-2.187a1 1 0 0 1 .295-1.248C2.047 12.081 1.5 10.536 1.5 9.5a1 1 0 0 1 .723-.961c-.101-.297-.18-.597-.24-.887-.266-1.287-.242-2.739.047-3.895A1 1 0 0 1 3.866 3.5c1.078 1.868 3.065 3.009 4.915 3.686a16.32 16.32 0 0 0 2.279.645c.13-1.221.471-2.227.994-3.027.69-1.055 1.653-1.679 2.686-1.957 1.783-.48 3.761.067 5.043 1.071zm-9.034 5.89c-.685-.138-1.627-.369-2.654-.744-1.357-.496-2.933-1.27-4.253-2.468l.101.652c.221 1.071.632 1.671 1.005 1.858a1 1 0 0 1 .491 1.241c-.24.648-.87.701-1.442.558.461.69 1.288 1.379 2.669 1.609a1 1 0 0 1 .032 1.967l-.87.174c.133.116.277.229.431.336.697.482 1.397.691 2.001.54a1 1 0 0 1 .883 1.738c-.644.536-1.396.966-2.15 1.323a11.04 11.04 0 0 1-1.179.479l1.029.172c1.771.218 3.741.071 5.584-.562 1.837-.631 3.534-1.741 4.804-3.448s2.153-4.064 2.272-7.268a1 1 0 0 1 .292-.67c.45-.45.821-.965 1.004-1.579-.32.1-.68.186-1.109.268a1 1 0 0 1-.895-.275c-.764-.765-2.276-1.267-3.533-.929-.591.159-1.129.504-1.533 1.121C13.315 6.529 13 7.51 13 9a1 1 0 0 1-.33.742c-.498.449-1.336.184-1.922.066z"/></defs></svg>