<svg xmlns="http://www.w3.org/2000/svg" width="40" height="40" fill="none" xmlns:v="https://vecta.io/nano"><g clip-path="url(#A)" stroke="#000" stroke-width="2" stroke-linejoin="round"><path d="M13.333 25c0-1.841-1.492-3.333-3.333-3.333S6.667 23.159 6.667 25v3.333c0 1.841 1.492 3.333 3.333 3.333s3.333-1.492 3.333-3.333V25zm20 0c0-1.841-1.492-3.333-3.333-3.333S26.667 23.159 26.667 25v3.333c0 1.841 1.492 3.333 3.333 3.333s3.333-1.492 3.333-3.333V25z"/><g stroke-linecap="round"><path d="M6.667 25v-5c0-3.536 1.405-6.928 3.905-9.428S16.464 6.667 20 6.667s6.928 1.405 9.428 3.905 3.905 5.892 3.905 9.428v5M30 31.667c0 1.326-1.054 2.598-2.929 3.535S22.652 36.667 20 36.667"/></g></g><defs><clipPath id="A"><path fill="#fff" d="M0 0h40v40H0z"/></clipPath></defs></svg>