<svg xmlns="http://www.w3.org/2000/svg" width="44" height="44" fill="#000" fill-rule="evenodd" xmlns:v="https://vecta.io/nano"><path d="M26.868 22.681a4.08 4.08 0 0 0-3.847-2.72v-1.02h-2.04v1.02a4.08 4.08 0 1 0 0 8.16v4.08c-.887 0-1.643-.566-1.925-1.36a1.02 1.02 0 0 0-1.31-.65 1.02 1.02 0 0 0-.612 1.329 4.08 4.08 0 0 0 3.847 2.72v1.02h2.04v-1.02a4.08 4.08 0 1 0 0-8.16V22a2.04 2.04 0 0 1 1.924 1.36 1.02 1.02 0 0 0 1.644.419 1.02 1.02 0 0 0 .28-1.098zM20.98 22a2.04 2.04 0 0 0 0 4.08V22zm2.04 10.2a2.04 2.04 0 1 0 0-4.08v4.08zM10.936 6.314C13.44 5.089 17.546 3.64 22.04 3.64c4.4 0 8.399 1.388 10.888 2.597l.141.068c.751.371 1.357.722 1.783 1.007l-3.768 5.508C39.77 21.7 46.48 40.357 22.04 40.357S4.129 22.039 12.891 12.82L9.147 7.312a14.31 14.31 0 0 1 1.091-.641 19.36 19.36 0 0 1 .698-.357v-.001zm17.726 6.433l3.016-4.409c-2.805.202-6.142.861-9.355 1.791-2.295.663-4.845.562-7.206.127a25.58 25.58 0 0 1-1.772-.394l1.958 2.884c4.197 1.494 9.161 1.494 13.359.002zm-14.537 1.736c4.911 1.897 10.814 1.897 15.725-.002a29.85 29.85 0 0 1 5.088 7.286c1.379 2.813 2.13 5.625 2.007 8.049-.118 2.339-1.038 4.337-3.139 5.822-2.19 1.547-5.873 2.679-11.768 2.679-5.901 0-9.601-1.113-11.812-2.643-2.116-1.467-3.046-3.437-3.177-5.745-.138-2.397.597-5.195 1.971-8.027 1.311-2.701 3.14-5.301 5.105-7.419zm-1.173-6.848a24.59 24.59 0 0 0 2.534.614c2.193.404 4.392.463 6.269-.081a55.18 55.18 0 0 1 6.66-1.5c-1.877-.565-4.072-.987-6.377-.987-3.514 0-6.791.98-9.086 1.954z"/></svg>