<svg width="24" height="24" viewBox="0 0 24 24" fill="none" xmlns="http://www.w3.org/2000/svg">
<path d="M12 22C7.03 22 3 19.418 3 15V14.912C3 12.794 4.338 11.1 6.375 10C8.324 8.948 9.476 7.01 9.188 5L8.625 2L10.711 2.795C14.468 4.225 17.597 6.707 19.625 9.861C20.5167 11.2311 20.9941 12.8293 21 14.464V15C21 16.562 20.496 17.895 19.625 18.965" stroke="black" stroke-width="1.5" stroke-linecap="round" stroke-linejoin="round"/>
<path d="M12 22C10.343 22 9 20.567 9 18.8C9 17.4 10.016 16.279 10.91 15.252L12 14L13.09 15.252C13.984 16.28 15 17.4 15 18.8C15 20.567 13.657 22 12 22Z" stroke="black" stroke-width="1.5" stroke-linecap="round" stroke-linejoin="round"/>
</svg>
