<svg width="40" height="40" viewBox="0 0 40 40" fill="none" xmlns="http://www.w3.org/2000/svg">
<path d="M31.6667 36.6666V24.8333C31.6664 23.301 31.3642 21.7837 30.7773 20.3681C30.1905 18.9526 29.3306 17.6665 28.2467 16.5833L24.9967 13.3333V24.3116C24.9967 25.795 23.2017 26.54 22.1517 25.49L19.9934 23.3333C19.16 22.5 17.1584 22 15.8234 23.3333C14.49 24.6666 14.99 26.6666 15.8234 27.5L24.9967 36.6666" stroke="black" stroke-width="2" stroke-linecap="round" stroke-linejoin="round"/>
<path d="M18.3333 3.33331H21.6667C22.5507 3.33331 23.3986 3.6845 24.0237 4.30962C24.6488 4.93474 25 5.78259 25 6.66665V9.99998M18.3333 3.33331C18.3333 5.55498 19.6667 9.99998 25 9.99998M18.3333 3.33331H15M25 9.99998V20M8.33334 20V9.99998M15 3.33331H11.6667C10.7826 3.33331 9.93478 3.6845 9.30965 4.30962C8.68453 4.93474 8.33334 5.78259 8.33334 6.66665V9.99998M15 3.33331C15 5.55498 13.6667 9.99998 8.33334 9.99998M8.33334 20V23.3333C8.33334 24.2174 8.68453 25.0652 9.30965 25.6903C9.93478 26.3155 10.7826 26.6666 11.6667 26.6666H15C15 24.445 13.6667 20 8.33334 20Z" stroke="black" stroke-width="2" stroke-linecap="round" stroke-linejoin="round"/>
<path d="M15 15C15 15.9205 15.7462 16.6666 16.6667 16.6666C17.5872 16.6666 18.3333 15.9205 18.3333 15C18.3333 14.0795 17.5872 13.3333 16.6667 13.3333C15.7462 13.3333 15 14.0795 15 15Z" stroke="black" stroke-width="2" stroke-linecap="round" stroke-linejoin="round"/>
</svg>
