<svg width="24" height="24" viewBox="0 0 24 24" fill="none" xmlns="http://www.w3.org/2000/svg">
<path d="M6 20V10C6 8.4087 6.63214 6.88258 7.75736 5.75736C8.88258 4.63214 10.4087 4 12 4C13.5913 4 15.1174 4.63214 16.2426 5.75736C17.3679 6.88258 18 8.4087 18 10V20M2 13.565C2 11.512 4 11 6 11V20C4.93913 20 3.92172 19.5786 3.17157 18.8284C2.42143 18.0783 2 17.0609 2 16V13.565ZM22 13.565C22 11.512 20 11 18 11V20C19.0609 20 20.0783 19.5786 20.8284 18.8284C21.5786 18.0783 22 17.0609 22 16V13.565Z" stroke="black" stroke-width="1.5" stroke-linecap="round" stroke-linejoin="round"/>
</svg>
