<svg xmlns="http://www.w3.org/2000/svg" width="118" height="24" fill="none" xmlns:v="https://vecta.io/nano"><path d="M1.517 21V3.545h11.761v3.043H5.207v4.159h7.466v3.043H5.207v4.168h8.105V21H1.517zM19.898 7.909l2.403 4.577 2.463-4.577h3.724l-3.793 6.545L28.591 21h-3.707l-2.582-4.526L19.762 21h-3.75l3.886-6.546-3.75-6.545h3.75zm16.913 13.347c-1.341 0-2.494-.284-3.46-.852a5.76 5.76 0 0 1-2.216-2.386c-.511-1.017-.767-2.187-.767-3.511 0-1.341.258-2.517.775-3.528a5.76 5.76 0 0 1 2.224-2.378c.96-.574 2.102-.861 3.426-.861 1.142 0 2.142.207 3 .622s1.537.997 2.037 1.747.776 1.631.827 2.642h-3.426c-.097-.653-.352-1.179-.767-1.577-.409-.403-.946-.605-1.611-.605-.562 0-1.054.153-1.474.46-.415.301-.739.742-.972 1.321s-.349 1.281-.349 2.105c0 .835.114 1.546.341 2.131.233.585.56 1.031.98 1.338s.912.46 1.474.46c.415 0 .787-.085 1.116-.256.335-.17.611-.418.827-.741.222-.33.367-.724.435-1.185h3.426c-.057 1-.33 1.881-.818 2.642-.483.756-1.151 1.346-2.003 1.773s-1.861.639-3.026.639zm12.522-17.71V21h-3.631V3.545h3.631zm12.023 11.881V7.909h3.631V21h-3.486v-2.378h-.136c-.295.767-.787 1.384-1.474 1.849-.682.466-1.514.699-2.497.699-.875 0-1.645-.199-2.31-.597s-1.185-.963-1.56-1.696c-.369-.733-.557-1.611-.562-2.634V7.909h3.631v7.688c.006.773.213 1.383.622 1.832s.957.673 1.645.673c.438 0 .847-.099 1.227-.298.381-.205.688-.506.92-.903.239-.398.355-.889.349-1.475zm18.147-3.784l-3.324.205a1.72 1.72 0 0 0-.366-.767c-.187-.233-.435-.418-.742-.554-.301-.142-.662-.213-1.082-.213-.562 0-1.037.119-1.423.358-.386.233-.579.545-.579.938 0 .313.125.577.375.793s.679.389 1.287.52l2.369.477c1.273.261 2.222.682 2.847 1.261s.938 1.341.938 2.284c0 .858-.253 1.611-.758 2.258-.5.648-1.187 1.153-2.062 1.517-.869.358-1.872.537-3.008.537-1.733 0-3.114-.361-4.142-1.082-1.023-.727-1.622-1.716-1.798-2.966l3.571-.187c.108.528.369.932.784 1.21.415.273.946.409 1.594.409.636 0 1.148-.122 1.534-.366.392-.25.591-.571.597-.963a1 1 0 0 0-.418-.81c-.273-.216-.693-.381-1.261-.494l-2.267-.452c-1.278-.256-2.23-.699-2.855-1.33-.619-.631-.929-1.435-.929-2.412 0-.841.227-1.565.682-2.173.46-.608 1.105-1.077 1.935-1.406.835-.33 1.813-.494 2.932-.494 1.653 0 2.955.349 3.903 1.048.954.699 1.511 1.651 1.67 2.855zM82.808 21V7.909h3.631V21h-3.631zm1.824-14.778a1.97 1.97 0 0 1-1.389-.537 1.74 1.74 0 0 1-.571-1.304c0-.5.19-.929.571-1.287.386-.364.849-.545 1.389-.545s1 .182 1.381.545c.386.358.579.787.579 1.287 0 .506-.193.94-.579 1.304-.381.358-.841.537-1.381.537zm17.64 1.688L97.695 21h-4.091L89.027 7.909h3.835l2.719 9.367h.136l2.71-9.367h3.844zm8.122 13.347c-1.347 0-2.506-.273-3.478-.818-.966-.551-1.71-1.329-2.233-2.335-.522-1.011-.784-2.207-.784-3.588 0-1.347.262-2.528.784-3.545s1.259-1.81 2.208-2.378 2.074-.852 3.358-.852c.863 0 1.667.139 2.412.418a5.35 5.35 0 0 1 1.96 1.236c.562.551 1 1.244 1.312 2.08.313.829.469 1.801.469 2.915v.997h-11.054v-2.25h7.636c0-.523-.113-.986-.34-1.389a2.45 2.45 0 0 0-.946-.946c-.398-.233-.861-.349-1.39-.349-.551 0-1.039.128-1.466.383-.42.25-.75.588-.988 1.014-.239.42-.361.889-.367 1.406v2.139c0 .648.12 1.207.358 1.679.245.472.588.835 1.031 1.091s.969.384 1.577.384a3.43 3.43 0 0 0 1.108-.171c.335-.114.622-.284.861-.511s.42-.506.545-.835l3.358.222c-.17.807-.52 1.511-1.048 2.114-.523.597-1.199 1.063-2.028 1.398-.824.33-1.776.494-2.855.494z" fill="#000"/></svg>