<svg xmlns="http://www.w3.org/2000/svg" width="80" height="80" fill="none" xmlns:v="https://vecta.io/nano"><path opacity=".3" d="M80 40c0 22.091-17.909 40-40 40S0 62.091 0 40 17.909 0 40 0s40 17.909 40 40zm-69.093 0c0 16.068 13.025 29.093 29.093 29.093S69.093 56.068 69.093 40 56.068 10.907 40 10.907 10.907 23.933 10.907 40z" fill="#2f2e30"/><circle cx="40" cy="40" r="29" fill="#000"/><path d="M28.099 50.599h0c-.873-.651-1.673-1.678-2.256-2.84s-.926-2.414-.926-3.492v-12.4c0-2.359 1.755-4.905 3.975-5.732h.001l8.316-3.116c.754-.282 1.753-.431 2.775-.431s2.021.149 2.775.431l8.316 3.117h.001c2.22.827 3.974 3.372 3.974 5.732V44.25c0 1.087-.343 2.339-.926 3.498s-1.383 2.183-2.256 2.834h0l-7.167 5.35h0l-.006.005c-1.283.989-2.971 1.496-4.695 1.496s-3.415-.506-4.735-1.485l-7.166-5.349zm9.643-26.168h-.001l-8.317 3.117h-.001c-.828.312-1.569.974-2.1 1.742s-.891 1.699-.891 2.593v12.383c0 .894.311 1.923.768 2.834s1.092 1.771 1.8 2.299h0l7.166 5.35c1.062.794 2.461 1.175 3.835 1.175s2.776-.38 3.846-1.173l.001-.001 7.167-5.35.001-.001c.715-.536 1.35-1.395 1.806-2.306s.761-1.934.761-2.828v-12.4c0-.886-.36-1.813-.891-2.58s-1.27-1.432-2.095-1.753h0l-.006-.002-8.317-3.117h0l-.009-.003c-.638-.225-1.466-.329-2.266-.326s-1.626.11-2.259.346zm-.329 16.623l.354.353.353-.353 6.283-6.283a.76.76 0 0 1 1.06 0 .76.76 0 0 1 0 1.06l-7.167 7.167c-.151.151-.338.22-.53.22s-.379-.069-.53-.22l-2.683-2.683a.76.76 0 0 1 0-1.059.76.76 0 0 1 1.06 0l1.8 1.8z" fill="#fafafa" stroke="#fafafa"/></svg>