<svg xmlns="http://www.w3.org/2000/svg" width="80" height="80" fill="none" xmlns:v="https://vecta.io/nano"><path opacity=".3" d="M80.5 40c0 22.091-17.909 40-40 40S.5 62.091.5 40s17.909-40 40-40 40 17.909 40 40zm-69.093 0c0 16.068 13.025 29.093 29.093 29.093S69.593 56.068 69.593 40 56.568 10.907 40.5 10.907 11.407 23.933 11.407 40z" fill="#2f2e30"/><path opacity=".3" d="M80 40c0 22.091-17.909 40-40 40S0 62.091 0 40 17.909 0 40 0s40 17.909 40 40zm-69.093 0c0 16.068 13.025 29.093 29.093 29.093S69.093 56.068 69.093 40 56.068 10.907 40 10.907 10.907 23.933 10.907 40z" fill="#fff"/><circle cx="40" cy="40" r="29" fill="#000"/><g stroke="#fff" stroke-linejoin="round"><path d="M40 57.273c9.539 0 17.273-7.733 17.273-17.273S49.54 22.727 40 22.727 22.728 30.461 22.728 40 30.461 57.273 40 57.273z" stroke-width="2"/><path d="M45.091 34.547c-.329-.571-.808-1.042-1.384-1.362a3.63 3.63 0 0 0-1.888-.455h-3.636c-.965 0-1.889.383-2.571 1.065s-1.065 1.606-1.065 2.571.383 1.889 1.065 2.571A3.63 3.63 0 0 0 38.182 40h3.636c.964 0 1.889.383 2.571 1.065s1.065 1.606 1.065 2.571-.383 1.889-1.065 2.571-1.607 1.065-2.571 1.065h-3.636a3.64 3.64 0 0 1-1.888-.455 3.63 3.63 0 0 1-1.384-1.362M40 28.182v3.939m0 15.758v3.939" stroke-width="2.75" stroke-linecap="round"/></g></svg>