<svg xmlns="http://www.w3.org/2000/svg" width="80" height="80" fill="none" xmlns:v="https://vecta.io/nano"><path opacity=".3" d="M80 40c0 22.091-17.909 40-40 40S0 62.091 0 40 17.909 0 40 0s40 17.909 40 40zm-69.093 0c0 16.068 13.025 29.093 29.093 29.093S69.093 56.068 69.093 40 56.068 10.907 40 10.907 10.907 23.933 10.907 40z" fill="#2f2e30"/><circle cx="40" cy="40" r="29" fill="#000"/><path d="M31.667 31.667v-3.333a5 5 0 0 1 2.959-4.564 5 5 0 0 1 5.375.838 5 5 0 0 1 5.374-.838 5 5 0 0 1 2.959 4.564v3.333h2.5a2.5 2.5 0 0 1 2.5 2.5v16.675c0 1.545-.614 3.026-1.706 4.119s-2.574 1.706-4.119 1.706H33.334c-1.768 0-3.464-.702-4.714-1.953S26.667 51.768 26.667 50V34.167a2.5 2.5 0 0 1 2.5-2.5h2.5zm11.058 22.5a5.8 5.8 0 0 1-1.042-3.325V34.167H29.167V50c0 .547.108 1.089.317 1.594s.516.965.903 1.352.846.694 1.352.903a4.17 4.17 0 0 0 1.595.317h9.392zm-3.558-22.5v-3.333a2.5 2.5 0 0 0-2.5-2.5 2.5 2.5 0 0 0-2.5 2.5v3.333h5zm2.5 0h4.167v-3.333a2.5 2.5 0 0 0-1.653-2.353 2.5 2.5 0 0 0-2.773.759 4.99 4.99 0 0 1 .26 1.593v3.333zm2.517 19.175c0 .882.35 1.728.974 2.351s1.469.974 2.351.974 1.727-.35 2.351-.974.974-1.469.974-2.351V34.167h-6.65v16.675z" fill="#fff"/></svg>