<svg xmlns="http://www.w3.org/2000/svg" width="80" height="80" fill="none" xmlns:v="https://vecta.io/nano"><path opacity=".3" d="M80 40c0 22.091-17.909 40-40 40S0 62.091 0 40 17.909 0 40 0s40 17.909 40 40zm-69.093 0c0 16.068 13.025 29.093 29.093 29.093S69.093 56.068 69.093 40 56.068 10.907 40 10.907 10.907 23.933 10.907 40z" fill="#2f2e30"/><circle cx="40" cy="40" r="29" fill="#000"/><path d="M30.4 53V36.75c0-2.586 1.011-5.066 2.812-6.894S37.454 27 40 27s4.988 1.027 6.788 2.856S49.6 34.164 49.6 36.75V53M24 42.543c0-3.336 3.2-4.168 6.4-4.168V53a6.35 6.35 0 0 1-4.525-1.904C24.674 49.877 24 48.224 24 46.5v-3.957zm32 0c0-3.336-3.2-4.168-6.4-4.168V53a6.35 6.35 0 0 0 4.526-1.904C55.326 49.877 56 48.224 56 46.5v-3.957z" stroke="#fafafa" stroke-width="2" stroke-linecap="round" stroke-linejoin="round"/></svg>