<svg xmlns="http://www.w3.org/2000/svg" width="80" height="80" fill="none" xmlns:v="https://vecta.io/nano"><path opacity=".3" d="M80 40c0 22.091-17.909 40-40 40S0 62.091 0 40 17.909 0 40 0s40 17.909 40 40zm-69.093 0c0 16.068 13.025 29.093 29.093 29.093S69.093 56.068 69.093 40 56.068 10.907 40 10.907 10.907 23.933 10.907 40z" fill="#2f2e30"/><circle cx="40" cy="40" r="29" fill="#000"/><g clip-path="url(#A)" stroke="#fafafa" stroke-width="2" stroke-linejoin="round"><path d="M31.667 51.667c1.841 0 3.333-1.492 3.333-3.333S33.508 45 31.667 45s-3.333 1.492-3.333 3.333 1.492 3.333 3.333 3.333zm16.666 0c1.841 0 3.333-1.492 3.333-3.333S50.174 45 48.333 45 45 46.492 45 48.333s1.492 3.333 3.333 3.333z"/><g stroke-linecap="round"><path d="M28.333 48.334H27a2 2 0 0 1-2-2v-4.667m-1.667-13.333h16.333a2 2 0 0 1 2 2v18m-6.667 0h10m6.667 0H53a2 2 0 0 0 2-2v-8m0 0H41.667m13.333 0l-4.417-7.362A2 2 0 0 0 48.868 30h-7.201"/><path d="M28 48h-1.333a2 2 0 0 1-2-2v-4.667M23 28h16.333a2 2 0 0 1 2 2v18M35 48h9.667M52 48h.667a2 2 0 0 0 2-2v-8m0 0H41.333m13.333 0l-4.417-7.362a2 2 0 0 0-1.715-.971h-7.201M25 31.818h6.667m-9.849 3.637h6.667M25 39.091h6.667"/></g></g><defs><clipPath id="A"><path fill="#fff" transform="translate(20 20)" d="M0 0h40v40H0z"/></clipPath></defs></svg>