<svg xmlns="http://www.w3.org/2000/svg" width="81" height="80" fill="none" xmlns:v="https://vecta.io/nano"><path opacity=".3" d="M80.5 40c0 22.091-17.909 40-40 40S.5 62.091.5 40s17.909-40 40-40 40 17.909 40 40zm-69.093 0c0 16.068 13.025 29.093 29.093 29.093S69.593 56.068 69.593 40 56.568 10.907 40.5 10.907 11.407 23.933 11.407 40z" fill="#2f2e30"/><circle cx="40.5" cy="40" r="29" fill="#000"/><g stroke-width="2"><path d="M54.642 25h-6.653l.833 8.333S50.488 35 52.988 35c1.312.002 2.58-.476 3.565-1.343a.84.84 0 0 0 .25-.775l-1.177-7.048a1 1 0 0 0-.985-.833h0z" stroke="#fff"/><g stroke="#fafafa"><path d="M47.988 25l.833 8.333S47.155 35 44.655 35s-4.167-1.667-4.167-1.667V25h7.5z"/><path d="M40.489 25v8.333S38.822 35 36.322 35s-4.167-1.667-4.167-1.667L32.989 25h7.5z"/><path d="M32.988 25h-6.652a1 1 0 0 0-.987.835l-1.175 7.048a.84.84 0 0 0 .25.775 5.39 5.39 0 0 0 3.563 1.343c2.5 0 4.167-1.667 4.167-1.667l.833-8.333V25zM25.5 35v16.667c0 .884.351 1.732.976 2.357s1.473.976 2.357.976h23.333c.884 0 1.732-.351 2.357-.976s.976-1.473.976-2.357V35"/><path d="M45.222 55V45c0-.884-.351-1.732-.976-2.357s-1.473-.976-2.357-.976h-3.333c-.884 0-1.732.351-2.357.976s-.976 1.473-.976 2.357v10" stroke-miterlimit="16"/></g></g></svg>