<svg xmlns="http://www.w3.org/2000/svg" width="81" height="80" fill="none" xmlns:v="https://vecta.io/nano"><path opacity=".3" d="M80.5 40c0 22.091-17.909 40-40 40S.5 62.091.5 40s17.909-40 40-40 40 17.909 40 40zm-69.093 0c0 16.068 13.025 29.093 29.093 29.093S69.593 56.068 69.593 40 56.568 10.907 40.5 10.907 11.407 23.933 11.407 40z" fill="#2f2e30"/><circle cx="40.5" cy="40" r="29" fill="#000"/><path d="M40.928 38.146v.5h.5a3.21 3.21 0 0 1 3.026 2.139.42.42 0 0 1 .024.165c-.003.056-.017.111-.041.161a.42.42 0 0 1-.1.133c-.042.037-.09.067-.143.085a.43.43 0 0 1-.546-.26h0c-.162-.459-.463-.856-.861-1.138a2.35 2.35 0 0 0-1.36-.432h-.5v.5 3.709.5h.5a3.21 3.21 0 0 1 3.209 3.209 3.21 3.21 0 0 1-3.209 3.209h-.5v.5.427h-.854v-.427-.5h-.5a3.21 3.21 0 0 1-3.026-2.14h0l-.005-.013c-.021-.053-.03-.11-.028-.167a.43.43 0 0 1 .039-.165c.024-.052.058-.099.1-.137l-.336-.368.336.368a.43.43 0 0 1 .146-.087c.054-.019.111-.027.168-.024a.41.41 0 0 1 .164.044.44.44 0 0 1 .134.104c.037.043.066.094.083.148l.002.007.002.007c.325.915 1.196 1.569 2.221 1.569h.5v-.5-3.709-.5h-.5a3.21 3.21 0 0 1-3.209-3.209 3.21 3.21 0 0 1 3.209-3.209h.5v-.5-.427h.854v.427zM40.073 40v-.5h-.5c-.625 0-1.223.248-1.665.69s-.69 1.04-.69 1.665.248 1.223.69 1.665 1.04.69 1.665.69h.5v-.5V40zm.854 9.273v.5h.5c.625 0 1.223-.248 1.665-.69s.69-1.04.69-1.665-.248-1.223-.69-1.665-1.04-.69-1.665-.69h-.5v.5 3.709zm-7.721-16.695l.316.122c4.349 1.68 9.586 1.68 13.935-.002l.313-.121.231.243a27.63 27.63 0 0 1 4.71 6.746l.001.002c1.276 2.603 1.992 5.246 1.875 7.562h0c-.114 2.261-1.015 4.227-3.065 5.676h0c-2.109 1.49-5.575 2.528-10.986 2.528s-8.896-1.019-11.022-2.491h0c-2.063-1.43-2.975-3.37-3.103-5.605l6.796-14.66zm0 0l-.23.248m.23-.248l-.23.248m0 0c-1.818 1.959-3.51 4.364-4.724 6.867h0m4.724-6.867l-4.724 6.867m0 0c-1.271 2.619-1.973 5.25-1.841 7.544l1.841-7.544zm22.092-13.512a16.93 16.93 0 0 1 1.135.613l-3.132 4.578-.232.339.287.293c1.938 1.982 3.769 4.512 5.079 7.188s2.087 5.471 1.961 7.982c-.126 2.49-1.136 4.713-3.425 6.33-2.311 1.633-5.978 2.685-11.48 2.685s-9.182-1.033-11.508-2.644c-2.303-1.595-3.329-3.79-3.47-6.258-.142-2.491.618-5.27 1.925-7.966 1.305-2.69 3.139-5.26 5.098-7.321l.278-.292-.227-.333-3.11-4.576a13.67 13.67 0 0 1 .52-.291h0l.002-.001a17.69 17.69 0 0 1 .617-.316l.196-.096c2.246-1.071 5.807-2.285 9.679-2.285 3.902 0 7.461 1.233 9.68 2.311l.125.061zm-3.618 5.878l.153-.054.092-.134 2.742-4.009.585-.855-1.034.074c-2.593.187-5.663.794-8.608 1.647-1.984.573-4.217.492-6.321.104-.529-.098-1.055-.215-1.576-.35l-1.285-.334.746 1.099L34 31.868l.092.135.154.055a19.12 19.12 0 0 0 12.48.002zM32.08 26.48l-1.28.543 1.332.396a22.95 22.95 0 0 0 2.355.571h0c2.035.375 4.12.439 5.929-.085h.001a49.75 49.75 0 0 1 5.995-1.35l.065-.972c-1.741-.524-3.786-.919-5.941-.919-3.282 0-6.329.914-8.455 1.816z" fill="#fafafa" stroke="#fafafa"/></svg>